#!OML:ASF G:\JayActor3\Patient Classification 1\Patient 1\Session 6\male.ASF
:FULLY-SPECIFIED
:DEGREES
1209
root 13.4372 15.1576 -13.079 195.598 -50.6936 -181.57
lowerback 35.5437 1.78096 2.56069
upperback 18.6031 -1.04511 -0.561575
thorax 2.56272 -1.75887 -1.69727
lowerneck 2.49162 -2.56458 1.75975
upperneck -25.7676 -3.78911 3.82615
head -8.34877 -2.99175 1.3757
rclavicle 4.44284e-014 4.94974e-014
rhumerus 34.8847 -0.118661 -46.0817
rradius 71.5978
rwrist -10.1184
rhand -23.7592 -12.0821
rfingers 7.12502
rthumb 2.70995 -42.0446
lclavicle 4.44284e-014 4.94974e-014
lhumerus -2.11181 -13.0909 66.0081
lradius 67.1149
lwrist 31.987
lhand -17.8082 10.5199
lfingers 7.12502
lthumb 8.45542 40.3307
rfemur -49.6263 -9.92298 22.8975
rtibia 67.7835
rfoot -31.1718 -21.4143
rtoes -7.88834
lfemur -53.114 12.1813 -29.3158
ltibia 54.5692
lfoot -16.3738 7.32943
ltoes -2.39891
1210
root 13.4207 15.1585 -13.0833 195.52 -50.6372 -181.462
lowerback 35.4947 1.83297 2.56828
upperback 18.6146 -0.981472 -0.664339
thorax 2.59186 -1.71885 -1.82846
lowerneck 2.45786 -2.60018 1.8961
upperneck -25.7469 -3.83061 3.8072
head -8.33915 -3.02176 1.34815
rclavicle -3.77691e-014 -1.89591e-014
rhumerus 34.9514 -0.434893 -46.0842
rradius 71.5318
rwrist -10.0254
rhand -23.7907 -12.1138
rfingers 7.12502
rthumb 2.67945 -42.0767
lclavicle -3.77691e-014 -1.89591e-014
lhumerus -1.98172 -13.1336 65.8783
lradius 67.0235
lwrist 32.0599
lhand -17.9713 10.5302
lfingers 7.12502
lthumb 8.29802 40.3472
rfemur -49.8557 -9.99953 22.9568
rtibia 68.1764
rfoot -30.8101 -21.3464
rtoes -8.31387
lfemur -53.0699 12.2255 -29.2572
ltibia 54.607
lfoot -16.4988 7.33282
ltoes -2.31382
1211
root 13.4048 15.1597 -13.087 195.475 -50.5816 -181.376
lowerback 35.4376 1.87363 2.54934
upperback 18.6131 -0.935415 -0.758024
thorax 2.6084 -1.68931 -1.9308
lowerneck 2.42779 -2.62583 1.98297
upperneck -25.7251 -3.86242 3.79324
head -8.32858 -3.04296 1.32993
rclavicle -1.57537e-014 2.12203e-014
rhumerus 35.0376 -0.68908 -46.0681
rradius 71.4609
rwrist -9.95398
rhand -23.8191 -12.0931
rfingers 7.12502
rthumb 2.65207 -42.0564
lclavicle -1.57537e-014 2.12203e-014
lhumerus -1.89602 -13.1332 65.7886
lradius 66.9342
lwrist 32.123
lhand -18.1626 10.5519
lfingers 7.12502
lthumb 8.11343 40.3762
rfemur -50.1637 -10.0823 23.0009
rtibia 68.6468
rfoot -30.3743 -21.2738
rtoes -8.69726
lfemur -53.0391 12.2624 -29.2193
ltibia 54.6343
lfoot -16.6253 7.33434
ltoes -2.18707
1212
root 13.3893 15.1614 -13.09 195.461 -50.5287 -181.314
lowerback 35.376 1.89957 2.49786
upperback 18.598 -0.912999 -0.837249
thorax 2.61034 -1.67432 -1.99373
lowerneck 2.39958 -2.6387 2.00232
upperneck -25.6999 -3.88209 3.78616
head -8.31527 -3.05264 1.32438
rclavicle 6.00578e-014 5.39949e-014
rhumerus 35.1535 -0.867802 -46.0258
rradius 71.3964
rwrist -9.91178
rhand -23.8486 -12.0713
rfingers 7.12502
rthumb 2.6236 -42.035
lclavicle 6.00578e-014 5.39949e-014
lhumerus -1.86637 -13.0743 65.7482
lradius 66.8517
lwrist 32.1658
lhand -18.3581 10.5782
lfingers 7.12502
lthumb 7.92472 40.4096
rfemur -50.5445 -10.1751 23.0266
rtibia 69.1907
rfoot -29.8678 -21.1895
rtoes -9.01292
lfemur -53.0153 12.2873 -29.202
ltibia 54.6489
lfoot -16.7569 7.34094
ltoes -2.02734
1213
root 13.3741 15.1637 -13.0926 195.469 -50.4745 -181.271
lowerback 35.3135 1.91789 2.43341
upperback 18.5752 -0.901523 -0.912083
thorax 2.60343 -1.66564 -2.0418
lowerneck 2.37028 -2.64587 1.9931
upperneck -25.68 -3.89684 3.78234
head -8.30281 -3.05809 1.3245
rclavicle -3.51103e-014 -3.69677e-014
rhumerus 35.276 -1.00804 -45.9745
rradius 71.339
rwrist -9.89221
rhand -23.8727 -12.0363
rfingers 7.12502
rthumb 2.6003 -42.0002
lclavicle -3.51103e-014 -3.69677e-014
lhumerus -1.8619 -12.9993 65.7316
lradius 66.7758
lwrist 32.1947
lhand -18.5259 10.6105
lfingers 7.12502
lthumb 7.76275 40.448
rfemur -50.9863 -10.2706 23.0353
rtibia 69.7964
rfoot -29.2899 -21.1004
rtoes -9.23172
lfemur -52.991 12.3052 -29.2013
ltibia 54.6495
lfoot -16.9098 7.34855
ltoes -1.76671
1214
root 13.3596 15.1661 -13.0956 195.477 -50.4139 -181.218
lowerback 35.246 1.93566 2.36025
upperback 18.5466 -0.891521 -0.97698
thorax 2.59197 -1.65875 -2.0743
lowerneck 2.34147 -2.64658 1.95729
upperneck -25.6735 -3.90465 3.78644
head -8.29419 -3.05948 1.3317
rclavicle -9.42985e-015 2.15526e-014
rhumerus 35.4001 -1.11307 -45.9144
rradius 71.2951
rwrist -9.90123
rhand -23.9082 -11.9972
rfingers 7.12502
rthumb 2.56603 -41.9615
lclavicle -9.42985e-015 2.15526e-014
lhumerus -1.87889 -12.9133 65.7336
lradius 66.7085
lwrist 32.207
lhand -18.6499 10.6415
lfingers 7.12502
lthumb 7.64305 40.4834
rfemur -51.4848 -10.3435 23.0483
rtibia 70.4513
rfoot -28.6489 -21.0196
rtoes -9.31413
lfemur -52.9741 12.3275 -29.1937
ltibia 54.6401
lfoot -17.0641 7.35082
ltoes -1.41866
1215
root 13.3456 15.1689 -13.0991 195.479 -50.3524 -181.154
lowerback 35.18 1.95336 2.28603
upperback 18.5161 -0.881463 -1.03043
thorax 2.57832 -1.65276 -2.09416
lowerneck 2.31008 -2.64278 1.89913
upperneck -25.6792 -3.90823 3.79682
head -8.28859 -3.05828 1.3448
rclavicle -3.48867e-014 6.88168e-014
rhumerus 35.5244 -1.19583 -45.8424
rradius 71.2613
rwrist -9.93116
rhand -23.9344 -11.9601
rfingers 7.12502
rthumb 2.54074 -41.9247
lclavicle -3.48867e-014 6.88168e-014
lhumerus -1.90553 -12.8269 65.75
lradius 66.6489
lwrist 32.2056
lhand -18.7236 10.6585
lfingers 7.12502
lthumb 7.57191 40.503
rfemur -52.0225 -10.4002 23.0666
rtibia 71.1383
rfoot -27.9417 -20.9554
rtoes -9.24928
lfemur -52.9563 12.3542 -29.1764
ltibia 54.6209
lfoot -17.2078 7.34425
ltoes -1.03847
1216
root 13.3323 15.1721 -13.1032 195.478 -50.2892 -181.087
lowerback 35.1202 1.97419 2.21486
upperback 18.4857 -0.866947 -1.07754
thorax 2.5631 -1.64496 -2.11009
lowerneck 2.26968 -2.63905 1.84016
upperneck -25.6951 -3.91297 3.80992
head -8.28475 -3.05875 1.3592
rclavicle 2.89729e-014 2.44008e-014
rhumerus 35.6371 -1.27316 -45.7669
rradius 71.234
rwrist -9.9667
rhand -23.9422 -11.8985
rfingers 7.12502
rthumb 2.53323 -41.8632
lclavicle 2.89729e-014 2.44008e-014
lhumerus -1.93014 -12.7559 65.771
lradius 66.5966
lwrist 32.1913
lhand -18.7483 10.6519
lfingers 7.12502
lthumb 7.54809 40.4972
rfemur -52.5878 -10.4408 23.0853
rtibia 71.8437
rfoot -27.1828 -20.9034
rtoes -8.98261
lfemur -52.9338 12.389 -29.153
ltibia 54.5923
lfoot -17.337 7.3321
ltoes -0.694684
1217
root 13.3197 15.1756 -13.108 195.472 -50.231 -181.02
lowerback 35.0712 1.99546 2.14709
upperback 18.4554 -0.851305 -1.11653
thorax 2.54484 -1.63717 -2.11942
lowerneck 2.23836 -2.63149 1.77345
upperneck -25.7311 -3.91241 3.82808
head -8.28919 -3.05746 1.37706
rclavicle -3.08116e-015 7.35503e-014
rhumerus 35.7381 -1.34493 -45.6873
rradius 71.2139
rwrist -9.99746
rhand -23.9289 -11.8305
rfingers 7.12502
rthumb 2.54603 -41.7951
lclavicle -3.08116e-015 7.35503e-014
lhumerus -1.95376 -12.7001 65.7955
lradius 66.553
lwrist 32.164
lhand -18.7594 10.6317
lfingers 7.12502
lthumb 7.5374 40.4774
rfemur -53.1667 -10.4728 23.1022
rtibia 72.5509
rfoot -26.3884 -20.857
rtoes -8.48874
lfemur -52.9024 12.4309 -29.1256
ltibia 54.5522
lfoot -17.4345 7.31347
ltoes -0.470942
1218
root 13.3079 15.1796 -13.1133 195.478 -50.1789 -180.974
lowerback 35.034 2.01572 2.08091
upperback 18.4267 -0.837232 -1.15356
thorax 2.52433 -1.63044 -2.1269
lowerneck 2.20065 -2.62462 1.71812
upperneck -25.7733 -3.91333 3.84293
head -8.29501 -3.05821 1.39212
rclavicle 2.34566e-014 -4.74101e-014
rhumerus 35.8251 -1.41648 -45.6097
rradius 71.2043
rwrist -10.0188
rhand -23.9089 -11.7705
rfingers 7.12502
rthumb 2.56535 -41.7348
lclavicle 2.34566e-014 -4.74101e-014
lhumerus -1.97083 -12.6633 65.8176
lradius 66.5181
lwrist 32.1249
lhand -18.7555 10.6021
lfingers 7.12502
lthumb 7.54112 40.4477
rfemur -53.7522 -10.5066 23.1037
rtibia 73.2468
rfoot -25.5732 -20.8124
rtoes -7.76933
lfemur -52.8609 12.4768 -29.1095
ltibia 54.4994
lfoot -17.5106 7.29048
ltoes -0.362915
